<!--?xml version="1.0" standalone="no"?-->              <svg id="sw-js-blob-svg" viewBox="0 0 100 100" xmlns="http://www.w3.org/2000/svg">                    <defs>                         <linearGradient id="sw-gradient" x1="0" x2="1" y1="1" y2="0">                            <stop id="stop1" stop-color="rgba(137, 44, 220, 1)" offset="0%"></stop>                            <stop id="stop2" stop-color="rgba(34, 40, 49, 1)" offset="100%"></stop>                        </linearGradient>                    </defs>                <path fill="url(#sw-gradient)" d="M14.9,-24.8C21.5,-22.1,30.4,-22.4,34.1,-18.7C37.7,-15.1,36.2,-7.6,32.6,-2.1C28.9,3.4,23.2,6.7,19.7,10.6C16.1,14.4,14.7,18.8,11.8,25.2C8.9,31.6,4.4,40.2,-0.3,40.8C-5.1,41.3,-10.2,33.9,-16.6,29.5C-23,25.1,-30.8,23.7,-31.9,19.3C-33,14.9,-27.5,7.4,-24.6,1.6C-21.8,-4.1,-21.6,-8.3,-21.4,-14.3C-21.3,-20.3,-21.1,-28.2,-17.5,-32.7C-13.9,-37.2,-7,-38.2,-1.4,-35.8C4.2,-33.4,8.4,-27.6,14.9,-24.8Z" width="100%" height="100%" transform="translate(50 50)" stroke-width="0" style="transition: all 0.3s ease 0s;"></path>              </svg>